<svg width="394" height="86" viewBox="0 0 394 86" fill="none" xmlns="http://www.w3.org/2000/svg">
<path d="M45.75 31.1667H8.25L20.75 77C20.75 77 22.8333 83.25 27 83.25C31.1667 83.25 33.25 77 33.25 77L45.75 31.1667Z" stroke="white" stroke-width="4"/>
<path d="M52 31.1667H2C2 14.5 12.4167 2 27 2C41.5833 2 52 14.5 52 31.1667Z" fill="#006BB3" stroke="white" stroke-width="4" stroke-linecap="round" stroke-linejoin="round"/>
<g filter="url(#filter0_d_3_11)">
<path d="M86.6338 55.2598C86.6338 54.2832 86.471 53.4124 86.1455 52.6475C85.82 51.8825 85.2829 51.1989 84.5342 50.5967C83.8018 49.9782 82.8089 49.4085 81.5557 48.8877C80.3187 48.3506 78.7725 47.8216 76.917 47.3008C75.1429 46.7962 73.5397 46.2428 72.1074 45.6406C70.6751 45.0384 69.4463 44.3467 68.4209 43.5654C67.4118 42.7842 66.6387 41.8727 66.1016 40.8311C65.5645 39.7731 65.2959 38.5443 65.2959 37.1445C65.2959 35.7773 65.5889 34.5322 66.1748 33.4092C66.7607 32.2861 67.5827 31.3177 68.6406 30.5039C69.7148 29.6901 70.9762 29.0635 72.4248 28.624C73.8896 28.1846 75.4928 27.9648 77.2344 27.9648C79.7246 27.9648 81.873 28.4368 83.6797 29.3809C85.5026 30.3249 86.9105 31.6025 87.9033 33.2139C88.9124 34.8089 89.417 36.5993 89.417 38.585H86.4141C86.4141 37.0387 86.0479 35.6634 85.3154 34.459C84.5993 33.2383 83.5576 32.2861 82.1904 31.6025C80.8395 30.9027 79.1875 30.5527 77.2344 30.5527C75.2812 30.5527 73.6374 30.8538 72.3027 31.4561C70.9844 32.042 69.9834 32.8314 69.2998 33.8242C68.6325 34.8008 68.2988 35.8913 68.2988 37.0957C68.2988 37.9421 68.4616 38.7233 68.7871 39.4395C69.1126 40.1393 69.6416 40.7985 70.374 41.417C71.1227 42.0192 72.1074 42.5889 73.3281 43.126C74.5488 43.6468 76.0544 44.1432 77.8447 44.6152C79.7327 45.1361 81.4092 45.7139 82.874 46.3486C84.3389 46.9834 85.5758 47.7158 86.585 48.5459C87.5941 49.3597 88.359 50.3118 88.8799 51.4023C89.4007 52.4928 89.6611 53.7624 89.6611 55.2109C89.6611 56.6595 89.3519 57.9616 88.7334 59.1172C88.1312 60.2565 87.2767 61.2249 86.1699 62.0225C85.0794 62.82 83.7855 63.4303 82.2881 63.8535C80.807 64.2767 79.1875 64.4883 77.4297 64.4883C75.8509 64.4883 74.2803 64.2848 72.7178 63.8779C71.1553 63.471 69.723 62.8444 68.4209 61.998C67.1351 61.1354 66.1016 60.0286 65.3203 58.6777C64.5553 57.3268 64.1729 55.7155 64.1729 53.8438H67.1514C67.1514 55.3411 67.4525 56.6025 68.0547 57.6279C68.6569 58.6533 69.4544 59.4834 70.4473 60.1182C71.4564 60.7529 72.5632 61.2168 73.7676 61.5098C74.9883 61.7865 76.209 61.9248 77.4297 61.9248C79.3014 61.9248 80.9209 61.6481 82.2881 61.0947C83.6715 60.5413 84.7376 59.7682 85.4863 58.7754C86.2513 57.7663 86.6338 56.5944 86.6338 55.2598ZM98.7188 26.5V64H95.8135V26.5H98.7188ZM122.767 59.2637V45.6406C122.767 44.3874 122.506 43.305 121.985 42.3936C121.465 41.4821 120.7 40.7822 119.69 40.2939C118.681 39.8057 117.436 39.5615 115.955 39.5615C114.588 39.5615 113.367 39.8057 112.293 40.2939C111.235 40.766 110.397 41.4089 109.778 42.2227C109.176 43.0202 108.875 43.9072 108.875 44.8838L105.945 44.8594C105.945 43.8665 106.189 42.9062 106.678 41.9785C107.166 41.0508 107.858 40.2207 108.753 39.4883C109.648 38.7559 110.714 38.1781 111.951 37.7549C113.204 37.3154 114.58 37.0957 116.077 37.0957C117.965 37.0957 119.625 37.4131 121.058 38.0479C122.506 38.6826 123.637 39.6348 124.451 40.9043C125.265 42.1738 125.672 43.7689 125.672 45.6895V58.458C125.672 59.3695 125.737 60.3135 125.867 61.29C126.014 62.2666 126.217 63.0723 126.478 63.707V64H123.377C123.182 63.4141 123.027 62.6816 122.913 61.8027C122.815 60.9076 122.767 60.0612 122.767 59.2637ZM123.45 48.6191L123.499 50.8652H117.762C116.264 50.8652 114.922 51.0036 113.733 51.2803C112.562 51.5407 111.569 51.9313 110.755 52.4521C109.941 52.9567 109.314 53.5671 108.875 54.2832C108.452 54.9993 108.24 55.8132 108.24 56.7246C108.24 57.6686 108.476 58.5312 108.948 59.3125C109.437 60.0938 110.12 60.7204 110.999 61.1924C111.894 61.6481 112.952 61.876 114.173 61.876C115.8 61.876 117.233 61.5749 118.47 60.9727C119.723 60.3704 120.757 59.5811 121.57 58.6045C122.384 57.6279 122.929 56.5618 123.206 55.4062L124.476 57.0908C124.264 57.9046 123.873 58.7428 123.304 59.6055C122.75 60.4518 122.026 61.2493 121.131 61.998C120.236 62.7305 119.178 63.3327 117.957 63.8047C116.753 64.2604 115.385 64.4883 113.855 64.4883C112.13 64.4883 110.625 64.1628 109.339 63.5117C108.069 62.8607 107.076 61.9736 106.36 60.8506C105.66 59.7113 105.311 58.4255 105.311 56.9932C105.311 55.6911 105.587 54.5273 106.141 53.502C106.694 52.4603 107.492 51.5814 108.533 50.8652C109.591 50.1328 110.861 49.5794 112.342 49.2051C113.839 48.8145 115.516 48.6191 117.371 48.6191H123.45ZM140.833 57.8232L147.205 37.584H149.256L148.035 43.0283L141.37 64H139.319L140.833 57.8232ZM134.217 37.584L139.808 57.9453L141.004 64H138.88L131.214 37.584H134.217ZM157.19 57.8721L162.635 37.584H165.638L157.972 64H155.872L157.19 57.8721ZM149.671 37.584L155.945 57.6523L157.532 64H155.481L148.67 43.0039L147.522 37.584H149.671ZM208.045 44.3955V46.959H186.438V44.3955H208.045ZM187.146 28.4531V64H184.144V28.4531H187.146ZM210.462 28.4531V64H207.459V28.4531H210.462ZM229.065 64.4883C227.34 64.4883 225.753 64.1709 224.305 63.5361C222.872 62.9014 221.619 62.0062 220.545 60.8506C219.487 59.695 218.665 58.3278 218.079 56.749C217.509 55.154 217.225 53.4124 217.225 51.5244V50.4746C217.225 48.4401 217.526 46.6009 218.128 44.957C218.73 43.3132 219.56 41.9053 220.618 40.7334C221.676 39.5615 222.881 38.6663 224.231 38.0479C225.599 37.4131 227.031 37.0957 228.528 37.0957C230.205 37.0957 231.694 37.3968 232.996 37.999C234.298 38.585 235.389 39.4232 236.268 40.5137C237.163 41.5879 237.838 42.8656 238.294 44.3467C238.75 45.8115 238.978 47.431 238.978 49.2051V50.9873H218.982V48.4971H236.072V48.1553C236.04 46.6742 235.739 45.2907 235.169 44.0049C234.616 42.7028 233.785 41.6449 232.679 40.8311C231.572 40.0173 230.188 39.6104 228.528 39.6104C227.291 39.6104 226.152 39.8708 225.11 40.3916C224.085 40.9124 223.198 41.6611 222.449 42.6377C221.717 43.598 221.147 44.7454 220.74 46.0801C220.35 47.3984 220.154 48.8633 220.154 50.4746V51.5244C220.154 52.9893 220.366 54.3564 220.789 55.626C221.229 56.8792 221.847 57.986 222.645 58.9463C223.458 59.9066 224.419 60.6553 225.525 61.1924C226.632 61.7295 227.853 61.998 229.188 61.998C230.75 61.998 232.133 61.7132 233.338 61.1436C234.542 60.5576 235.625 59.638 236.585 58.3848L238.416 59.8008C237.846 60.6471 237.13 61.4284 236.268 62.1445C235.421 62.8607 234.404 63.4303 233.216 63.8535C232.028 64.2767 230.644 64.4883 229.065 64.4883ZM247.986 26.5V64H245.081V26.5H247.986ZM272.034 59.2637V45.6406C272.034 44.3874 271.774 43.305 271.253 42.3936C270.732 41.4821 269.967 40.7822 268.958 40.2939C267.949 39.8057 266.704 39.5615 265.223 39.5615C263.855 39.5615 262.635 39.8057 261.561 40.2939C260.503 40.766 259.664 41.4089 259.046 42.2227C258.444 43.0202 258.143 43.9072 258.143 44.8838L255.213 44.8594C255.213 43.8665 255.457 42.9062 255.945 41.9785C256.434 41.0508 257.125 40.2207 258.021 39.4883C258.916 38.7559 259.982 38.1781 261.219 37.7549C262.472 37.3154 263.847 37.0957 265.345 37.0957C267.233 37.0957 268.893 37.4131 270.325 38.0479C271.774 38.6826 272.905 39.6348 273.719 40.9043C274.533 42.1738 274.939 43.7689 274.939 45.6895V58.458C274.939 59.3695 275.005 60.3135 275.135 61.29C275.281 62.2666 275.485 63.0723 275.745 63.707V64H272.645C272.449 63.4141 272.295 62.6816 272.181 61.8027C272.083 60.9076 272.034 60.0612 272.034 59.2637ZM272.718 48.6191L272.767 50.8652H267.029C265.532 50.8652 264.189 51.0036 263.001 51.2803C261.829 51.5407 260.836 51.9313 260.022 52.4521C259.209 52.9567 258.582 53.5671 258.143 54.2832C257.719 54.9993 257.508 55.8132 257.508 56.7246C257.508 57.6686 257.744 58.5312 258.216 59.3125C258.704 60.0938 259.388 60.7204 260.267 61.1924C261.162 61.6481 262.22 61.876 263.44 61.876C265.068 61.876 266.5 61.5749 267.737 60.9727C268.991 60.3704 270.024 59.5811 270.838 58.6045C271.652 57.6279 272.197 56.5618 272.474 55.4062L273.743 57.0908C273.532 57.9046 273.141 58.7428 272.571 59.6055C272.018 60.4518 271.294 61.2493 270.398 61.998C269.503 62.7305 268.445 63.3327 267.225 63.8047C266.02 64.2604 264.653 64.4883 263.123 64.4883C261.398 64.4883 259.892 64.1628 258.606 63.5117C257.337 62.8607 256.344 61.9736 255.628 60.8506C254.928 59.7113 254.578 58.4255 254.578 56.9932C254.578 55.6911 254.855 54.5273 255.408 53.502C255.962 52.4603 256.759 51.5814 257.801 50.8652C258.859 50.1328 260.128 49.5794 261.609 49.2051C263.107 48.8145 264.783 48.6191 266.639 48.6191H272.718ZM299.939 58.873V26.5H302.869V64H300.135L299.939 58.873ZM281.604 51.0605V50.5479C281.604 48.4971 281.84 46.6497 282.312 45.0059C282.785 43.3457 283.46 41.9297 284.339 40.7578C285.234 39.5697 286.308 38.6663 287.562 38.0479C288.815 37.4131 290.231 37.0957 291.81 37.0957C293.356 37.0957 294.723 37.348 295.911 37.8525C297.099 38.3571 298.117 39.0814 298.963 40.0254C299.826 40.9694 300.517 42.0924 301.038 43.3945C301.575 44.6966 301.966 46.1452 302.21 47.7402V54.2588C302.015 55.7562 301.657 57.1315 301.136 58.3848C300.615 59.6217 299.923 60.7041 299.061 61.6318C298.198 62.5433 297.156 63.2513 295.936 63.7559C294.731 64.2441 293.34 64.4883 291.761 64.4883C290.198 64.4883 288.79 64.1628 287.537 63.5117C286.284 62.8607 285.218 61.9411 284.339 60.7529C283.46 59.5485 282.785 58.1243 282.312 56.4805C281.84 54.8366 281.604 53.0299 281.604 51.0605ZM284.534 50.5479V51.0605C284.534 52.6068 284.689 54.0391 284.998 55.3574C285.307 56.6758 285.779 57.8232 286.414 58.7998C287.049 59.7764 287.854 60.5413 288.831 61.0947C289.808 61.6481 290.963 61.9248 292.298 61.9248C293.974 61.9248 295.382 61.6074 296.521 60.9727C297.661 60.3216 298.572 59.4671 299.256 58.4092C299.939 57.335 300.436 56.1631 300.745 54.8936V47.3008C300.55 46.4382 300.265 45.5592 299.891 44.6641C299.516 43.7689 299.004 42.9469 298.353 42.1982C297.718 41.4333 296.904 40.8229 295.911 40.3672C294.935 39.8952 293.746 39.6592 292.347 39.6592C290.996 39.6592 289.832 39.9359 288.855 40.4893C287.879 41.0426 287.065 41.8158 286.414 42.8086C285.779 43.7852 285.307 44.9326 284.998 46.251C284.689 47.5693 284.534 49.0016 284.534 50.5479ZM308.948 51.207V50.4014C308.948 48.4808 309.225 46.7067 309.778 45.0791C310.332 43.4515 311.121 42.0436 312.146 40.8555C313.188 39.6673 314.433 38.7477 315.882 38.0967C317.33 37.4294 318.942 37.0957 320.716 37.0957C322.506 37.0957 324.126 37.4294 325.574 38.0967C327.023 38.7477 328.268 39.6673 329.31 40.8555C330.351 42.0436 331.149 43.4515 331.702 45.0791C332.256 46.7067 332.532 48.4808 332.532 50.4014V51.207C332.532 53.1276 332.256 54.9017 331.702 56.5293C331.149 58.1406 330.351 59.5404 329.31 60.7285C328.284 61.9167 327.047 62.8444 325.599 63.5117C324.15 64.1628 322.539 64.4883 320.765 64.4883C318.974 64.4883 317.355 64.1628 315.906 63.5117C314.458 62.8444 313.213 61.9167 312.171 60.7285C311.129 59.5404 310.332 58.1406 309.778 56.5293C309.225 54.9017 308.948 53.1276 308.948 51.207ZM311.854 50.4014V51.207C311.854 52.6556 312.049 54.0309 312.439 55.333C312.83 56.6188 313.4 57.7663 314.148 58.7754C314.897 59.7682 315.825 60.5495 316.932 61.1191C318.038 61.6888 319.316 61.9736 320.765 61.9736C322.197 61.9736 323.458 61.6888 324.549 61.1191C325.656 60.5495 326.583 59.7682 327.332 58.7754C328.081 57.7663 328.642 56.6188 329.017 55.333C329.407 54.0309 329.603 52.6556 329.603 51.207V50.4014C329.603 48.9691 329.407 47.61 329.017 46.3242C328.642 45.0384 328.073 43.891 327.308 42.8818C326.559 41.8727 325.631 41.0752 324.524 40.4893C323.418 39.9033 322.148 39.6104 320.716 39.6104C319.284 39.6104 318.014 39.9033 316.907 40.4893C315.817 41.0752 314.889 41.8727 314.124 42.8818C313.375 43.891 312.806 45.0384 312.415 46.3242C312.041 47.61 311.854 48.9691 311.854 50.4014ZM354.407 57.2617C354.407 56.5456 354.228 55.8376 353.87 55.1377C353.512 54.4378 352.82 53.7949 351.795 53.209C350.786 52.623 349.297 52.1266 347.327 51.7197C345.862 51.3942 344.552 51.028 343.396 50.6211C342.257 50.2142 341.297 49.7259 340.516 49.1562C339.734 48.5866 339.14 47.903 338.733 47.1055C338.326 46.3079 338.123 45.3639 338.123 44.2734C338.123 43.2969 338.335 42.3773 338.758 41.5146C339.197 40.6357 339.816 39.8708 340.613 39.2197C341.427 38.5524 342.404 38.0316 343.543 37.6572C344.699 37.2829 345.993 37.0957 347.425 37.0957C349.459 37.0957 351.201 37.4456 352.649 38.1455C354.114 38.8291 355.229 39.765 355.994 40.9531C356.775 42.1413 357.166 43.484 357.166 44.9814H354.261C354.261 44.07 353.992 43.2074 353.455 42.3936C352.934 41.5798 352.161 40.9124 351.136 40.3916C350.127 39.8708 348.89 39.6104 347.425 39.6104C345.911 39.6104 344.682 39.8382 343.738 40.2939C342.794 40.7497 342.103 41.3275 341.663 42.0273C341.24 42.7272 341.028 43.4515 341.028 44.2002C341.028 44.7861 341.118 45.3232 341.297 45.8115C341.492 46.2835 341.834 46.723 342.322 47.1299C342.827 47.5368 343.543 47.9193 344.471 48.2773C345.398 48.6354 346.603 48.9854 348.084 49.3271C350.216 49.7992 351.958 50.377 353.309 51.0605C354.676 51.7279 355.685 52.5579 356.336 53.5508C356.987 54.5273 357.312 55.7155 357.312 57.1152C357.312 58.2057 357.085 59.2067 356.629 60.1182C356.173 61.0133 355.514 61.7865 354.651 62.4375C353.805 63.0885 352.78 63.5931 351.575 63.9512C350.387 64.3092 349.052 64.4883 347.571 64.4883C345.341 64.4883 343.453 64.1221 341.907 63.3896C340.377 62.641 339.214 61.6644 338.416 60.46C337.635 59.2393 337.244 57.9453 337.244 56.5781H340.149C340.247 57.9453 340.678 59.0277 341.443 59.8252C342.208 60.6064 343.144 61.1598 344.251 61.4854C345.374 61.8109 346.481 61.9736 347.571 61.9736C349.069 61.9736 350.322 61.7539 351.331 61.3145C352.34 60.875 353.105 60.2972 353.626 59.5811C354.147 58.8649 354.407 58.0918 354.407 57.2617Z" fill="white"/>
</g>
<line x1="52" y1="75.5" x2="394" y2="75.5" stroke="white"/>
<defs>
<filter id="filter0_d_3_11" x="60.1729" y="26.5" width="301.14" height="45.9883" filterUnits="userSpaceOnUse" color-interpolation-filters="sRGB">
<feFlood flood-opacity="0" result="BackgroundImageFix"/>
<feColorMatrix in="SourceAlpha" type="matrix" values="0 0 0 0 0 0 0 0 0 0 0 0 0 0 0 0 0 0 127 0" result="hardAlpha"/>
<feOffset dy="4"/>
<feGaussianBlur stdDeviation="2"/>
<feComposite in2="hardAlpha" operator="out"/>
<feColorMatrix type="matrix" values="0 0 0 0 0 0 0 0 0 0 0 0 0 0 0 0 0 0 0.25 0"/>
<feBlend mode="normal" in2="BackgroundImageFix" result="effect1_dropShadow_3_11"/>
<feBlend mode="normal" in="SourceGraphic" in2="effect1_dropShadow_3_11" result="shape"/>
</filter>
</defs>
</svg>
